<?xml version="1.0" encoding="utf-8"?>
<!-- Generator: Adobe Illustrator 26.0.3, SVG Export Plug-In . SVG Version: 6.00 Build 0)  -->
<svg version="1.1" id="Capa_1" xmlns="http://www.w3.org/2000/svg" xmlns:xlink="http://www.w3.org/1999/xlink" x="0px" y="0px"
	 viewBox="0 0 2736.28 1024.94" style="enable-background:new 0 0 2736.28 1024.94;" xml:space="preserve">
<style type="text/css">
	.st0{fill:#FFFFFF;}
</style>
<g>
	<g>
		<polygon class="st0" points="524.5,298.49 678.55,561.66 772.32,561.66 522.36,128.07 105.61,886.25 571.53,886.25 571.53,801.34 
			248.09,801.34 		"/>
		<polygon class="st0" points="1061.98,145.93 626.26,884.96 720.38,885.42 1155.44,146.38 		"/>
	</g>
	<g>
		<path class="st0" d="M1266.04,558.62h87.05l-43.53-102.96L1266.04,558.62z M1382.75,629.23l-21.62-51.48h-103.12l-21.9,51.48
			h-23.56l86.76-200.29h19.96l86.77,200.29H1382.75z"/>
		<polygon class="st0" points="1548.52,428.94 1470.91,548.21 1470.91,629.23 1448.18,629.23 1448.18,547.93 1370.55,428.94 
			1397.17,428.94 1459.82,527.39 1522.47,428.94 		"/>
		<path class="st0" d="M1668.69,601.24c7.3-5.91,10.95-14.96,10.95-27.15c0-24.57-15.07-36.85-45.18-36.85h-57.66v72.86h57.66
			C1649.99,610.1,1661.4,607.14,1668.69,601.24 M1576.8,517.83h53.23c14.78,0,25.97-3,33.54-8.99c7.57-6,11.37-14.81,11.37-26.45
			c0-22.88-14.97-34.32-44.91-34.32h-53.23V517.83z M1692.68,543.57c6.28,8.35,9.42,18.71,9.42,31.08c0,17.44-5.73,30.9-17.19,40.37
			c-11.46,9.47-27.63,14.21-48.51,14.21h-82.06V428.94h79.29c20.15,0,35.8,4.55,46.98,13.65c11.18,9.1,16.77,21.98,16.77,38.68
			c0,10.69-2.73,19.93-8.18,27.71c-5.45,7.79-13.07,13.55-22.86,17.3C1677.62,529.46,1686.39,535.23,1692.68,543.57"/>
		<rect x="1729.27" y="428.94" class="st0" width="22.73" height="200.29"/>
		<polygon class="st0" points="1994,428.94 1916.39,548.21 1916.39,629.23 1893.65,629.23 1893.65,547.93 1816.03,428.94 
			1842.65,428.94 1905.3,527.39 1967.95,428.94 		"/>
		<path class="st0" d="M2012.3,558.62h87.05l-43.53-102.96L2012.3,558.62z M2129.02,629.23l-21.62-51.48h-103.13l-21.9,51.48h-23.57
			l86.77-200.29h19.96l86.76,200.29H2129.02z"/>
		<path class="st0" d="M2208.44,381.82c4.52-5.72,10.58-8.58,18.16-8.58c3.88,0,7.58,0.8,11.09,2.39c3.51,1.6,7.67,3.89,12.48,6.89
			c3.88,2.44,6.97,4.22,9.28,5.35c2.31,1.12,4.57,1.69,6.79,1.69c4.06,0,7.25-1.5,9.56-4.5c2.31-3,3.47-6.66,3.47-10.98h12.47
			c0,10.32-2.26,18.34-6.8,24.06c-4.53,5.72-10.58,8.58-18.16,8.58c-3.88,0-7.58-0.79-11.09-2.39c-3.52-1.59-7.67-3.89-12.47-6.89
			c-3.89-2.44-6.98-4.22-9.29-5.35c-2.31-1.12-4.57-1.69-6.79-1.69c-4.07,0-7.26,1.5-9.57,4.5c-2.31,3.01-3.47,6.66-3.47,10.98
			h-12.47C2201.64,395.57,2203.91,387.55,2208.44,381.82 M2304.49,428.94h21.62v200.29h-17.75l-119.2-161.19v161.19h-21.34V428.94
			h17.46l119.2,161.18V428.94z"/>
		<polygon class="st0" points="2351.23,629.23 2351.23,428.94 2475.98,428.94 2475.98,448.07 2373.69,448.07 2373.69,517.83 
			2470.44,517.83 2470.44,537.24 2373.69,537.24 2373.69,610.1 2475.98,610.1 2475.98,629.23 		"/>
		<polygon class="st0" points="2514.79,609.82 2630.67,609.82 2630.67,629.23 2488.46,629.23 2488.46,612.07 2601.56,448.35 
			2488.46,448.35 2488.46,428.94 2627.89,428.94 2627.89,445.82 		"/>
	</g>
	<g>
		<path class="st0" d="M1225.76,822.71c-3.87,4.13-5.8,9.77-5.8,16.91c0,7.14,1.93,12.77,5.8,16.91c3.86,4.14,9,6.2,15.41,6.2
			c4.04,0,7.68-0.95,10.92-2.86c3.24-1.91,5.78-4.61,7.63-8.11c1.85-3.49,2.77-7.54,2.77-12.14c0-4.6-0.92-8.64-2.77-12.14
			c-1.85-3.49-4.39-6.2-7.63-8.11c-3.24-1.91-6.88-2.86-10.92-2.86C1234.77,816.51,1229.63,818.57,1225.76,822.71 M1254.07,814.49
			c4.08,3.04,6.84,7.07,8.31,12.09v-36.47h7.32v78.45h-7.32v-15.9c-1.46,5.02-4.23,9.05-8.31,12.09c-4.08,3.04-9,4.56-14.78,4.56
			c-5.16,0-9.77-1.2-13.84-3.61c-4.08-2.4-7.25-5.84-9.51-10.34c-2.26-4.48-3.4-9.74-3.4-15.74c0-6.08,1.13-11.36,3.4-15.84
			c2.26-4.49,5.41-7.91,9.46-10.29c4.04-2.37,8.67-3.55,13.89-3.55C1245.07,809.94,1250,811.46,1254.07,814.49"/>
		<path class="st0" d="M1293.41,868.56h-7.42v-57.89h7.42V868.56z M1285.83,789.79c1.01-0.92,2.31-1.38,3.92-1.38
			c1.6,0,2.89,0.46,3.86,1.38s1.46,2.15,1.46,3.71c0,1.49-0.49,2.69-1.46,3.61c-0.98,0.92-2.26,1.38-3.86,1.38
			c-1.61,0-2.91-0.46-3.92-1.38c-1.01-0.92-1.52-2.12-1.52-3.61C1284.31,791.94,1284.83,790.71,1285.83,789.79"/>
		<path class="st0" d="M1341.88,814.92c3.76,3.32,6.06,7.81,6.89,13.46h-7c-0.42-3.75-1.93-6.84-4.55-9.27
			c-2.61-2.44-6.11-3.66-10.5-3.66c-3.76,0-6.71,0.94-8.83,2.81c-2.13,1.87-3.19,4.36-3.19,7.47c0,2.33,0.68,4.21,2.04,5.62
			c1.36,1.41,3.05,2.49,5.07,3.23c2.01,0.74,4.73,1.5,8.15,2.28c4.18,0.99,7.54,2,10.08,3.02c2.54,1.02,4.72,2.63,6.53,4.83
			c1.81,2.18,2.72,5.16,2.72,8.9c0,4.6-1.69,8.36-5.07,11.29c-3.38,2.94-7.85,4.4-13.43,4.4c-6.54,0-11.9-1.65-16.08-4.93
			s-6.65-7.79-7.42-13.51h7.11c0.42,3.81,2.05,6.92,4.91,9.33c2.85,2.4,6.72,3.6,11.6,3.6c3.62,0,6.44-0.95,8.46-2.85
			c2.02-1.91,3.03-4.39,3.03-7.43c0-2.47-0.7-4.45-2.09-5.93c-1.39-1.49-3.12-2.6-5.17-3.34c-2.05-0.74-4.86-1.53-8.41-2.39
			c-4.11-0.99-7.4-1.97-9.87-2.97c-2.48-0.99-4.58-2.53-6.32-4.61c-1.74-2.09-2.61-4.92-2.61-8.53c0-4.74,1.7-8.55,5.12-11.46
			c3.41-2.89,8.04-4.34,13.89-4.34C1333.15,809.94,1338.13,811.6,1341.88,814.92"/>
		<path class="st0" d="M1378.13,818.31c-3.06,1.55-5.55,3.94-7.47,7.15s-2.94,7.23-3.09,12.03h40.33c0.27-4.73-0.49-8.72-2.3-11.98
			c-1.81-3.25-4.24-5.66-7.31-7.21c-3.07-1.55-6.41-2.33-10.03-2.33C1384.58,815.98,1381.2,816.76,1378.13,818.31 M1400.91,859.23
			c3.49-2.61,5.57-6.15,6.28-10.6h7.73c-1.05,6.15-3.94,11.13-8.67,14.95c-4.74,3.81-10.73,5.72-17.97,5.72
			c-5.44,0-10.26-1.18-14.47-3.55c-4.21-2.37-7.51-5.8-9.87-10.29c-2.37-4.48-3.55-9.77-3.55-15.85c0-6.07,1.18-11.35,3.55-15.84
			c2.37-4.48,5.66-7.91,9.87-10.28c4.21-2.37,9.03-3.56,14.47-3.56c5.57,0,10.39,1.19,14.47,3.56c4.08,2.37,7.17,5.53,9.3,9.49
			c2.12,3.96,3.19,8.27,3.19,12.93c0,1.97-0.14,3.78-0.42,5.4h-47.22c0.07,4.88,1.06,8.96,2.98,12.24c1.91,3.29,4.4,5.71,7.47,7.27
			c3.07,1.55,6.37,2.33,9.93,2.33C1393.11,863.15,1397.42,861.85,1400.91,859.23"/>
		<path class="st0" d="M1451.63,795.09c1.02,0.5,2.08,1.17,3.19,2.01c1.05,0.78,1.99,1.38,2.82,1.81c0.84,0.42,1.74,0.63,2.72,0.63
			c1.18,0,2.19-0.42,3.03-1.27c0.84-0.85,1.36-2.09,1.57-3.72h4.28c-0.35,3.12-1.34,5.53-2.98,7.27c-1.64,1.73-3.68,2.6-6.12,2.6
			c-1.32,0-2.5-0.25-3.55-0.74c-1.04-0.49-2.19-1.2-3.45-2.12c-1.18-0.85-2.13-1.45-2.82-1.8c-0.7-0.35-1.49-0.54-2.41-0.54
			c-2.5,0-3.96,1.7-4.38,5.09h-4.29c0.49-3.25,1.48-5.72,2.98-7.42c1.49-1.7,3.46-2.55,5.9-2.55
			C1449.45,794.35,1450.62,794.6,1451.63,795.09 M1473.47,816.03c4.14,4.28,6.22,10.55,6.22,18.82v33.71h-7.21v-33.18
			c0-6.29-1.57-11.12-4.7-14.48c-3.14-3.36-7.42-5.04-12.85-5.04c-5.72,0-10.26,1.85-13.64,5.57c-3.38,3.7-5.07,9.17-5.07,16.37
			v30.75h-7.42v-57.89h7.42v14.21c1.46-4.94,4.11-8.72,7.94-11.34c3.84-2.61,8.22-3.92,13.17-3.92
			C1463.95,809.62,1469.32,811.75,1473.47,816.03"/>
		<path class="st0" d="M1510.92,818.95c-3.21,1.69-5.78,4.29-7.73,7.79c-1.95,3.49-2.93,7.79-2.93,12.88
			c0,5.09,0.98,9.37,2.93,12.83c1.95,3.46,4.53,6.04,7.73,7.74c3.21,1.69,6.68,2.54,10.45,2.54c3.69,0,7.12-0.85,10.29-2.54
			c3.17-1.7,5.72-4.28,7.67-7.74c1.95-3.46,2.93-7.74,2.93-12.83c0-5.09-0.98-9.39-2.93-12.88c-1.95-3.5-4.51-6.1-7.67-7.79
			c-3.17-1.69-6.6-2.54-10.29-2.54C1517.61,816.4,1514.13,817.25,1510.92,818.95 M1535.95,813.49c4.28,2.37,7.64,5.8,10.08,10.29
			c2.44,4.48,3.65,9.77,3.65,15.84c0,6.08-1.21,11.34-3.65,15.8s-5.8,7.88-10.08,10.28c-4.29,2.41-9.15,3.61-14.57,3.61
			c-5.44,0-10.31-1.2-14.63-3.61c-4.32-2.4-7.71-5.84-10.18-10.34c-2.47-4.48-3.71-9.74-3.71-15.74c0-6.08,1.24-11.36,3.71-15.84
			c2.47-4.49,5.87-7.91,10.18-10.29c4.32-2.37,9.19-3.55,14.63-3.55C1526.8,809.94,1531.66,811.12,1535.95,813.49"/>
		<path class="st0" d="M1601.35,822.71c-3.87,4.13-5.8,9.77-5.8,16.91c0,7.14,1.93,12.77,5.8,16.91c3.86,4.14,9,6.2,15.41,6.2
			c4.05,0,7.68-0.95,10.92-2.86c3.24-1.91,5.78-4.61,7.63-8.11c1.85-3.49,2.77-7.54,2.77-12.14c0-4.6-0.92-8.64-2.77-12.14
			c-1.85-3.49-4.39-6.2-7.63-8.11c-3.24-1.91-6.88-2.86-10.92-2.86C1610.35,816.51,1605.21,818.57,1601.35,822.71 M1629.66,814.49
			c4.08,3.04,6.88,7.07,8.41,12.09v-15.9h7.21v59.26c0,5.36-1.12,10.09-3.34,14.15c-2.23,4.06-5.33,7.21-9.31,9.43
			c-3.96,2.23-8.49,3.34-13.57,3.34c-7.45,0-13.57-1.82-18.34-5.46c-4.77-3.65-7.88-8.57-9.34-14.79h7.31
			c1.25,4.24,3.57,7.59,6.95,10.07c3.38,2.47,7.71,3.71,13.01,3.71c3.63,0,6.92-0.79,9.88-2.38c2.96-1.59,5.29-3.94,6.99-7.05
			c1.71-3.11,2.56-6.79,2.56-11.02v-17.28c-1.53,5.02-4.33,9.05-8.41,12.09c-4.08,3.04-9,4.56-14.78,4.56
			c-5.16,0-9.77-1.2-13.84-3.61c-4.08-2.4-7.25-5.84-9.51-10.34c-2.26-4.48-3.39-9.74-3.39-15.74c0-6.08,1.13-11.36,3.39-15.84
			c2.26-4.49,5.41-7.91,9.46-10.29c4.04-2.37,8.67-3.55,13.89-3.55C1620.66,809.94,1625.58,811.46,1629.66,814.49"/>
		<path class="st0" d="M1677.04,813.01c3.69-2.26,8.19-3.39,13.48-3.39v8.06h-2.41c-5.5,0-10.06,1.5-13.69,4.51
			c-3.62,3-5.43,7.89-5.43,14.68v31.7h-7.42v-57.89h7.42v11.98C1670.67,818.48,1673.34,815.27,1677.04,813.01"/>
		<path class="st0" d="M1744.42,793.19L1723,806.01v-5.51l21.42-13.57V793.19z M1711.15,822.71c-3.87,4.13-5.8,9.77-5.8,16.91
			c0,7.14,1.93,12.77,5.8,16.91c3.86,4.14,9,6.2,15.41,6.2c4.05,0,7.68-0.95,10.92-2.86c3.24-1.91,5.78-4.61,7.63-8.11
			c1.85-3.49,2.77-7.54,2.77-12.14c0-4.6-0.92-8.64-2.77-12.14c-1.85-3.49-4.39-6.2-7.63-8.11c-3.24-1.91-6.88-2.86-10.92-2.86
			C1720.15,816.51,1715.01,818.57,1711.15,822.71 M1739.46,814.49c4.08,3.04,6.88,7.07,8.41,12.09v-15.9h7.21v57.88h-7.21v-15.9
			c-1.53,5.02-4.33,9.05-8.41,12.09c-4.07,3.04-9,4.56-14.78,4.56c-5.16,0-9.77-1.2-13.84-3.61c-4.08-2.4-7.25-5.84-9.51-10.34
			c-2.26-4.48-3.39-9.74-3.39-15.74c0-6.08,1.13-11.36,3.39-15.84c2.26-4.49,5.41-7.91,9.46-10.29c4.04-2.37,8.67-3.55,13.89-3.55
			C1730.45,809.94,1735.39,811.46,1739.46,814.49"/>
		<path class="st0" d="M1784.28,798.22c-2.13,2.01-3.19,5.39-3.19,10.12v2.33h14.31v6.57h-14.31v51.32h-7.31v-51.32h-8.46v-6.57
			h8.46v-2.86c0-6.5,1.74-11.38,5.23-14.63c3.48-3.25,8.95-4.73,16.4-4.45v6.57C1790.11,795.23,1786.4,796.21,1784.28,798.22"/>
		<path class="st0" d="M1814.21,868.56h-7.42v-57.89h7.42V868.56z M1806.63,789.79c1.01-0.92,2.31-1.38,3.92-1.38
			c1.6,0,2.89,0.46,3.87,1.38c0.97,0.92,1.46,2.15,1.46,3.71c0,1.49-0.49,2.69-1.46,3.61c-0.98,0.92-2.27,1.38-3.87,1.38
			c-1.61,0-2.91-0.46-3.92-1.38c-1.01-0.92-1.51-2.12-1.51-3.61C1805.12,791.94,1805.62,790.71,1806.63,789.79"/>
		<path class="st0" d="M1873.71,815.76c4.77,3.89,7.68,9.05,8.72,15.48h-7.63c-0.77-4.6-2.89-8.21-6.37-10.86
			c-3.49-2.65-7.77-3.97-12.85-3.97c-3.69,0-7.08,0.85-10.18,2.54c-3.1,1.69-5.58,4.29-7.42,7.79c-1.85,3.49-2.77,7.79-2.77,12.88
			c0,5.09,0.92,9.38,2.77,12.88c1.84,3.5,4.32,6.09,7.42,7.79c3.09,1.69,6.49,2.54,10.18,2.54c5.08,0,9.37-1.33,12.85-3.97
			c3.49-2.65,5.6-6.28,6.37-10.87h7.63c-1.04,6.44-3.95,11.6-8.72,15.49c-4.77,3.89-10.78,5.83-18.02,5.83
			c-5.44,0-10.26-1.18-14.47-3.55c-4.21-2.37-7.51-5.8-9.87-10.29c-2.37-4.48-3.56-9.76-3.56-15.84c0-6.08,1.19-11.36,3.56-15.85
			c2.37-4.48,5.66-7.91,9.87-10.28s9.03-3.55,14.47-3.55C1862.93,809.94,1868.93,811.88,1873.71,815.76"/>
		<path class="st0" d="M1911.37,818.95c-3.21,1.69-5.78,4.29-7.73,7.79c-1.95,3.49-2.93,7.79-2.93,12.88
			c0,5.09,0.98,9.37,2.93,12.83c1.95,3.46,4.53,6.04,7.73,7.74c3.21,1.69,6.68,2.54,10.45,2.54c3.69,0,7.12-0.85,10.29-2.54
			c3.17-1.7,5.72-4.28,7.67-7.74c1.95-3.46,2.93-7.74,2.93-12.83c0-5.09-0.98-9.39-2.93-12.88c-1.95-3.5-4.51-6.1-7.67-7.79
			c-3.17-1.69-6.6-2.54-10.29-2.54C1918.05,816.4,1914.58,817.25,1911.37,818.95 M1936.39,813.49c4.28,2.37,7.64,5.8,10.08,10.29
			c2.44,4.48,3.66,9.77,3.66,15.84c0,6.08-1.22,11.34-3.66,15.8s-5.8,7.88-10.08,10.28c-4.29,2.41-9.15,3.61-14.57,3.61
			c-5.44,0-10.31-1.2-14.63-3.61c-4.32-2.4-7.71-5.84-10.18-10.34c-2.47-4.48-3.71-9.74-3.71-15.74c0-6.08,1.24-11.36,3.71-15.84
			c2.47-4.49,5.87-7.91,10.18-10.29c4.32-2.37,9.19-3.55,14.63-3.55C1927.25,809.94,1932.11,811.12,1936.39,813.49"/>
		<path class="st0" d="M1225.76,822.71c-3.87,4.13-5.8,9.77-5.8,16.91c0,7.14,1.93,12.77,5.8,16.91c3.86,4.14,9,6.2,15.41,6.2
			c4.04,0,7.68-0.95,10.92-2.86c3.24-1.91,5.78-4.61,7.63-8.11c1.85-3.49,2.77-7.54,2.77-12.14c0-4.6-0.92-8.64-2.77-12.14
			c-1.85-3.49-4.39-6.2-7.63-8.11c-3.24-1.91-6.88-2.86-10.92-2.86C1234.77,816.51,1229.63,818.57,1225.76,822.71 M1254.07,814.49
			c4.08,3.04,6.84,7.07,8.31,12.09v-36.47h7.32v78.45h-7.32v-15.9c-1.46,5.02-4.23,9.05-8.31,12.09c-4.08,3.04-9,4.56-14.78,4.56
			c-5.16,0-9.77-1.2-13.84-3.61c-4.08-2.4-7.25-5.84-9.51-10.34c-2.26-4.48-3.4-9.74-3.4-15.74c0-6.08,1.13-11.36,3.4-15.84
			c2.26-4.49,5.41-7.91,9.46-10.29c4.04-2.37,8.67-3.55,13.89-3.55C1245.07,809.94,1250,811.46,1254.07,814.49"/>
		<path class="st0" d="M1293.41,868.56h-7.42v-57.89h7.42V868.56z M1285.83,789.79c1.01-0.92,2.31-1.38,3.92-1.38
			c1.6,0,2.89,0.46,3.86,1.38s1.46,2.15,1.46,3.71c0,1.49-0.49,2.69-1.46,3.61c-0.98,0.92-2.26,1.38-3.86,1.38
			c-1.61,0-2.91-0.46-3.92-1.38c-1.01-0.92-1.52-2.12-1.52-3.61C1284.31,791.94,1284.83,790.71,1285.83,789.79"/>
		<path class="st0" d="M1341.88,814.92c3.76,3.32,6.06,7.81,6.89,13.46h-7c-0.42-3.75-1.93-6.84-4.55-9.27
			c-2.61-2.44-6.11-3.66-10.5-3.66c-3.76,0-6.71,0.94-8.83,2.81c-2.13,1.87-3.19,4.36-3.19,7.47c0,2.33,0.68,4.21,2.04,5.62
			c1.36,1.41,3.05,2.49,5.07,3.23c2.01,0.74,4.73,1.5,8.15,2.28c4.18,0.99,7.54,2,10.08,3.02c2.54,1.02,4.72,2.63,6.53,4.83
			c1.81,2.18,2.72,5.16,2.72,8.9c0,4.6-1.69,8.36-5.07,11.29c-3.38,2.94-7.85,4.4-13.43,4.4c-6.54,0-11.9-1.65-16.08-4.93
			s-6.65-7.79-7.42-13.51h7.11c0.42,3.81,2.05,6.92,4.91,9.33c2.85,2.4,6.72,3.6,11.6,3.6c3.62,0,6.44-0.95,8.46-2.85
			c2.02-1.91,3.03-4.39,3.03-7.43c0-2.47-0.7-4.45-2.09-5.93c-1.39-1.49-3.12-2.6-5.17-3.34c-2.05-0.74-4.86-1.53-8.41-2.39
			c-4.11-0.99-7.4-1.97-9.87-2.97c-2.48-0.99-4.58-2.53-6.32-4.61c-1.74-2.09-2.61-4.92-2.61-8.53c0-4.74,1.7-8.55,5.12-11.46
			c3.41-2.89,8.04-4.34,13.89-4.34C1333.15,809.94,1338.13,811.6,1341.88,814.92"/>
		<path class="st0" d="M1378.13,818.31c-3.06,1.55-5.55,3.94-7.47,7.15s-2.94,7.23-3.09,12.03h40.33c0.27-4.73-0.49-8.72-2.3-11.98
			c-1.81-3.25-4.24-5.66-7.31-7.21c-3.07-1.55-6.41-2.33-10.03-2.33C1384.58,815.98,1381.2,816.76,1378.13,818.31 M1400.91,859.23
			c3.49-2.61,5.57-6.15,6.28-10.6h7.73c-1.05,6.15-3.94,11.13-8.67,14.95c-4.74,3.81-10.73,5.72-17.97,5.72
			c-5.44,0-10.26-1.18-14.47-3.55c-4.21-2.37-7.51-5.8-9.87-10.29c-2.37-4.48-3.55-9.77-3.55-15.85c0-6.07,1.18-11.35,3.55-15.84
			c2.37-4.48,5.66-7.91,9.87-10.28c4.21-2.37,9.03-3.56,14.47-3.56c5.57,0,10.39,1.19,14.47,3.56c4.08,2.37,7.17,5.53,9.3,9.49
			c2.12,3.96,3.19,8.27,3.19,12.93c0,1.97-0.14,3.78-0.42,5.4h-47.22c0.07,4.88,1.06,8.96,2.98,12.24c1.91,3.29,4.4,5.71,7.47,7.27
			c3.07,1.55,6.37,2.33,9.93,2.33C1393.11,863.15,1397.42,861.85,1400.91,859.23"/>
		<path class="st0" d="M1451.63,795.09c1.02,0.5,2.08,1.17,3.19,2.01c1.05,0.78,1.99,1.38,2.82,1.81c0.84,0.42,1.74,0.63,2.72,0.63
			c1.18,0,2.19-0.42,3.03-1.27c0.84-0.85,1.36-2.09,1.57-3.72h4.28c-0.35,3.12-1.34,5.53-2.98,7.27c-1.64,1.73-3.68,2.6-6.12,2.6
			c-1.32,0-2.5-0.25-3.55-0.74c-1.04-0.49-2.19-1.2-3.45-2.12c-1.18-0.85-2.13-1.45-2.82-1.8c-0.7-0.35-1.49-0.54-2.41-0.54
			c-2.5,0-3.96,1.7-4.38,5.09h-4.29c0.49-3.25,1.48-5.72,2.98-7.42c1.49-1.7,3.46-2.55,5.9-2.55
			C1449.45,794.35,1450.62,794.6,1451.63,795.09 M1473.47,816.03c4.14,4.28,6.22,10.55,6.22,18.82v33.71h-7.21v-33.18
			c0-6.29-1.57-11.12-4.7-14.48c-3.14-3.36-7.42-5.04-12.85-5.04c-5.72,0-10.26,1.85-13.64,5.57c-3.38,3.7-5.07,9.17-5.07,16.37
			v30.75h-7.42v-57.89h7.42v14.21c1.46-4.94,4.11-8.72,7.94-11.34c3.84-2.61,8.22-3.92,13.17-3.92
			C1463.95,809.62,1469.32,811.75,1473.47,816.03"/>
		<path class="st0" d="M1510.92,818.95c-3.21,1.69-5.78,4.29-7.73,7.79c-1.95,3.49-2.93,7.79-2.93,12.88
			c0,5.09,0.98,9.37,2.93,12.83c1.95,3.46,4.53,6.04,7.73,7.74c3.21,1.69,6.68,2.54,10.45,2.54c3.69,0,7.12-0.85,10.29-2.54
			c3.17-1.7,5.72-4.28,7.67-7.74c1.95-3.46,2.93-7.74,2.93-12.83c0-5.09-0.98-9.39-2.93-12.88c-1.95-3.5-4.51-6.1-7.67-7.79
			c-3.17-1.69-6.6-2.54-10.29-2.54C1517.61,816.4,1514.13,817.25,1510.92,818.95 M1535.95,813.49c4.28,2.37,7.64,5.8,10.08,10.29
			c2.44,4.48,3.65,9.77,3.65,15.84c0,6.08-1.21,11.34-3.65,15.8s-5.8,7.88-10.08,10.28c-4.29,2.41-9.15,3.61-14.57,3.61
			c-5.44,0-10.31-1.2-14.63-3.61c-4.32-2.4-7.71-5.84-10.18-10.34c-2.47-4.48-3.71-9.74-3.71-15.74c0-6.08,1.24-11.36,3.71-15.84
			c2.47-4.49,5.87-7.91,10.18-10.29c4.32-2.37,9.19-3.55,14.63-3.55C1526.8,809.94,1531.66,811.12,1535.95,813.49"/>
		<path class="st0" d="M1601.35,822.71c-3.87,4.13-5.8,9.77-5.8,16.91c0,7.14,1.93,12.77,5.8,16.91c3.86,4.14,9,6.2,15.41,6.2
			c4.05,0,7.68-0.95,10.92-2.86c3.24-1.91,5.78-4.61,7.63-8.11c1.85-3.49,2.77-7.54,2.77-12.14c0-4.6-0.92-8.64-2.77-12.14
			c-1.85-3.49-4.39-6.2-7.63-8.11c-3.24-1.91-6.88-2.86-10.92-2.86C1610.35,816.51,1605.21,818.57,1601.35,822.71 M1629.66,814.49
			c4.08,3.04,6.88,7.07,8.41,12.09v-15.9h7.21v59.26c0,5.36-1.12,10.09-3.34,14.15c-2.23,4.06-5.33,7.21-9.31,9.43
			c-3.96,2.23-8.49,3.34-13.57,3.34c-7.45,0-13.57-1.82-18.34-5.46c-4.77-3.65-7.88-8.57-9.34-14.79h7.31
			c1.25,4.24,3.57,7.59,6.95,10.07c3.38,2.47,7.71,3.71,13.01,3.71c3.63,0,6.92-0.79,9.88-2.38c2.96-1.59,5.29-3.94,6.99-7.05
			c1.71-3.11,2.56-6.79,2.56-11.02v-17.28c-1.53,5.02-4.33,9.05-8.41,12.09c-4.08,3.04-9,4.56-14.78,4.56
			c-5.16,0-9.77-1.2-13.84-3.61c-4.08-2.4-7.25-5.84-9.51-10.34c-2.26-4.48-3.39-9.74-3.39-15.74c0-6.08,1.13-11.36,3.39-15.84
			c2.26-4.49,5.41-7.91,9.46-10.29c4.04-2.37,8.67-3.55,13.89-3.55C1620.66,809.94,1625.58,811.46,1629.66,814.49"/>
		<path class="st0" d="M1677.04,813.01c3.69-2.26,8.19-3.39,13.48-3.39v8.06h-2.41c-5.5,0-10.06,1.5-13.69,4.51
			c-3.62,3-5.43,7.89-5.43,14.68v31.7h-7.42v-57.89h7.42v11.98C1670.67,818.48,1673.34,815.27,1677.04,813.01"/>
		<path class="st0" d="M1744.42,793.19L1723,806.01v-5.51l21.42-13.57V793.19z M1711.15,822.71c-3.87,4.13-5.8,9.77-5.8,16.91
			c0,7.14,1.93,12.77,5.8,16.91c3.86,4.14,9,6.2,15.41,6.2c4.05,0,7.68-0.95,10.92-2.86c3.24-1.91,5.78-4.61,7.63-8.11
			c1.85-3.49,2.77-7.54,2.77-12.14c0-4.6-0.92-8.64-2.77-12.14c-1.85-3.49-4.39-6.2-7.63-8.11c-3.24-1.91-6.88-2.86-10.92-2.86
			C1720.15,816.51,1715.01,818.57,1711.15,822.71 M1739.46,814.49c4.08,3.04,6.88,7.07,8.41,12.09v-15.9h7.21v57.88h-7.21v-15.9
			c-1.53,5.02-4.33,9.05-8.41,12.09c-4.07,3.04-9,4.56-14.78,4.56c-5.16,0-9.77-1.2-13.84-3.61c-4.08-2.4-7.25-5.84-9.51-10.34
			c-2.26-4.48-3.39-9.74-3.39-15.74c0-6.08,1.13-11.36,3.39-15.84c2.26-4.49,5.41-7.91,9.46-10.29c4.04-2.37,8.67-3.55,13.89-3.55
			C1730.45,809.94,1735.39,811.46,1739.46,814.49"/>
		<path class="st0" d="M1784.28,798.22c-2.13,2.01-3.19,5.39-3.19,10.12v2.33h14.31v6.57h-14.31v51.32h-7.31v-51.32h-8.46v-6.57
			h8.46v-2.86c0-6.5,1.74-11.38,5.23-14.63c3.48-3.25,8.95-4.73,16.4-4.45v6.57C1790.11,795.23,1786.4,796.21,1784.28,798.22"/>
		<path class="st0" d="M1814.21,868.56h-7.42v-57.89h7.42V868.56z M1806.63,789.79c1.01-0.92,2.31-1.38,3.92-1.38
			c1.6,0,2.89,0.46,3.87,1.38c0.97,0.92,1.46,2.15,1.46,3.71c0,1.49-0.49,2.69-1.46,3.61c-0.98,0.92-2.27,1.38-3.87,1.38
			c-1.61,0-2.91-0.46-3.92-1.38c-1.01-0.92-1.51-2.12-1.51-3.61C1805.12,791.94,1805.62,790.71,1806.63,789.79"/>
		<path class="st0" d="M1873.71,815.76c4.77,3.89,7.68,9.05,8.72,15.48h-7.63c-0.77-4.6-2.89-8.21-6.37-10.86
			c-3.49-2.65-7.77-3.97-12.85-3.97c-3.69,0-7.08,0.85-10.18,2.54c-3.1,1.69-5.58,4.29-7.42,7.79c-1.85,3.49-2.77,7.79-2.77,12.88
			c0,5.09,0.92,9.38,2.77,12.88c1.84,3.5,4.32,6.09,7.42,7.79c3.09,1.69,6.49,2.54,10.18,2.54c5.08,0,9.37-1.33,12.85-3.97
			c3.49-2.65,5.6-6.28,6.37-10.87h7.63c-1.04,6.44-3.95,11.6-8.72,15.49c-4.77,3.89-10.78,5.83-18.02,5.83
			c-5.44,0-10.26-1.18-14.47-3.55c-4.21-2.37-7.51-5.8-9.87-10.29c-2.37-4.48-3.56-9.76-3.56-15.84c0-6.08,1.19-11.36,3.56-15.85
			c2.37-4.48,5.66-7.91,9.87-10.28s9.03-3.55,14.47-3.55C1862.93,809.94,1868.93,811.88,1873.71,815.76"/>
		<path class="st0" d="M1911.37,818.95c-3.21,1.69-5.78,4.29-7.73,7.79c-1.95,3.49-2.93,7.79-2.93,12.88
			c0,5.09,0.98,9.37,2.93,12.83c1.95,3.46,4.53,6.04,7.73,7.74c3.21,1.69,6.68,2.54,10.45,2.54c3.69,0,7.12-0.85,10.29-2.54
			c3.17-1.7,5.72-4.28,7.67-7.74c1.95-3.46,2.93-7.74,2.93-12.83c0-5.09-0.98-9.39-2.93-12.88c-1.95-3.5-4.51-6.1-7.67-7.79
			c-3.17-1.69-6.6-2.54-10.29-2.54C1918.05,816.4,1914.58,817.25,1911.37,818.95 M1936.39,813.49c4.28,2.37,7.64,5.8,10.08,10.29
			c2.44,4.48,3.66,9.77,3.66,15.84c0,6.08-1.22,11.34-3.66,15.8s-5.8,7.88-10.08,10.28c-4.29,2.41-9.15,3.61-14.57,3.61
			c-5.44,0-10.31-1.2-14.63-3.61c-4.32-2.4-7.71-5.84-10.18-10.34c-2.47-4.48-3.71-9.74-3.71-15.74c0-6.08,1.24-11.36,3.71-15.84
			c2.47-4.49,5.87-7.91,10.18-10.29c4.32-2.37,9.19-3.55,14.63-3.55C1927.25,809.94,1932.11,811.12,1936.39,813.49"/>
	</g>
</g>
</svg>
