<?xml version="1.0" encoding="utf-8"?>
<!-- Generator: Adobe Illustrator 26.0.3, SVG Export Plug-In . SVG Version: 6.00 Build 0)  -->
<svg version="1.1" id="Capa_1" xmlns="http://www.w3.org/2000/svg" xmlns:xlink="http://www.w3.org/1999/xlink" x="0px" y="0px"
	 viewBox="0 0 118.7 132.5" style="enable-background:new 0 0 118.7 132.5;" xml:space="preserve">
<style type="text/css">
	.st0{fill:#616160;}
</style>
<g>
	<path class="st0" d="M91.5,38.6c1.7-0.6,3-2.2,3-4.2c0-1.8-1.1-3.4-2.7-4c0-0.1,0-0.2,0-0.4c-0.3-1.6-0.7-3.2-1.3-4.6v-7.9h1.3
		v-3.4h-3.4v3.4h1.3v6.1c-1.3-2.3-3-4.4-5.3-6.1c-4-2.9-8.4-3.9-13.3-3.2c-3.5,0.5-6.4,2.2-8.9,4.5l3-9.2l1.3,0.5L67.6,7l-3.2-1.1
		L63.3,9l1,0.4l-3.5,10.7C60.4,20,60,20,59.6,20c-0.5,0-1.1,0.1-1.5,0.3L53.9,9.8l1.3-0.5l-1.3-3.1l-3.1,1.3l1.3,3.1l1.1-0.4
		l3.5,8.9c-4.2-4-9.3-5.6-15.2-4.4c-5.8,1.2-9.8,4.4-12.2,9.1v-6.1h1.3v-3.4h-3.4v3.4h1.3v8c-0.4,0.9-0.7,1.9-1,3
		c-0.2,0.6-0.3,1.3-0.4,1.9c-1.5,0.7-2.6,2.2-2.6,4c0,1.9,1.2,3.5,2.9,4.2c0.3,1.2,0.6,2.3,1.1,3.4v11.6h-1.3V57h3.4v-3.4h-1.3v-9.8
		c0.4,0.8,0.8,1.5,1.3,2.3c2.8,4.3,6.3,7.9,10.1,11.2c4.7,4.2,9.6,8.3,14.4,12.5c-0.1,0.3-0.1,0.6-0.1,0.9c0,2.5,2,4.5,4.5,4.5
		c2.5,0,4.5-2,4.5-4.5c0-0.3,0-0.6-0.1-0.9c4.8-4.1,9.5-8.2,14.3-12.4c3.8-3.4,7.4-7,10.2-11.3c0.5-0.8,0.9-1.5,1.3-2.3v9.8h-1.3V57
		h3.4v-3.4h-1.3V41.9C90.8,40.8,91.2,39.7,91.5,38.6z M89.1,16.7V15h1.7v1.7H89.1z M64.9,6.9l1.6,0.6L66,9.1l-1.6-0.6L64.9,6.9z
		 M52.5,9.4l-0.6-1.6l1.6-0.6l0.6,1.6L52.5,9.4z M27.9,16.7V15h1.7v1.7H27.9z M29.6,54.4v1.7h-1.7v-1.7H29.6z M90.8,54.4v1.7h-1.7
		v-1.7H90.8z M59.6,22.2c1.2,0,2.2,1,2.2,2.2c0,1.2-1,2.2-2.2,2.2c-1.2,0-2.2-1-2.2-2.2C57.4,23.2,58.4,22.2,59.6,22.2z M28.8,36.7
		c-1,0-1.8-0.6-2.1-1.5c-0.1-0.2-0.1-0.5-0.1-0.7c0-0.3,0.1-0.5,0.1-0.7c0.3-0.9,1.1-1.5,2.1-1.5c0.7,0,1.4,0.4,1.8,0.9
		c0.3,0.4,0.4,0.8,0.4,1.3c0,0.4-0.1,0.8-0.3,1.1C30.3,36.2,29.6,36.7,28.8,36.7z M59.4,72.9c-0.8,0-1.5-0.5-1.9-1.1
		c-0.2-0.3-0.3-0.7-0.3-1.1c0-1.2,1-2.2,2.2-2.2c1.2,0,2.2,1,2.2,2.2c0,0.4-0.1,0.8-0.3,1.1C60.9,72.4,60.2,72.9,59.4,72.9z
		 M84.7,44.4c-2.6,3.9-5.9,7.1-9.4,10.2c-4.6,4.1-9.3,8.1-14,12.1c-0.6-0.3-1.3-0.5-2-0.5c-0.7,0-1.4,0.2-2,0.5
		c-0.7-0.6-1.5-1.3-2.2-1.9C50.7,61,46.3,57.2,42,53.3c-3-2.7-5.7-5.6-8-8.9c-1.3-2-2.3-4-2.9-6.2c1.3-0.8,2.1-2.2,2.1-3.7
		c0-1.7-1-3.2-2.4-3.9c0.8-4.5,2.9-8.1,7-10.6c4.7-2.8,11.1-2.7,15.5,1.2c0.7,0.6,1.4,1.3,2,2c-0.1,0.4-0.2,0.8-0.2,1.2
		c0,2.5,2,4.5,4.5,4.5c2.5,0,4.5-2,4.5-4.5c0-0.6-0.1-1.1-0.3-1.6c0.8-0.8,1.6-1.6,2.5-2.3c2.9-2.1,6.2-2.8,9.8-2.3
		c6,0.9,10.3,5.5,11.7,11.4c0.1,0.3,0.1,0.7,0.2,1c-1.4,0.8-2.3,2.2-2.3,3.9c0,1.6,0.8,2.9,2.1,3.7C87,40.3,86.1,42.4,84.7,44.4z
		 M90,36.7c-0.8,0-1.5-0.4-1.9-1.1c-0.2-0.3-0.3-0.7-0.3-1.1c0-0.5,0.1-0.9,0.4-1.2c0.4-0.6,1.1-1,1.8-1c0.9,0,1.7,0.6,2,1.4
		c0.1,0.3,0.2,0.5,0.2,0.8c0,0.3-0.1,0.7-0.2,0.9C91.6,36.1,90.8,36.7,90,36.7z"/>
	<path class="st0" d="M59.3,126.7c-1.6,0-3.2,0-4.8,0c-1.7,0-2.9-1.2-2.9-2.9c0-1.7,0-3.3,0-5c0-0.2-0.1-0.5-0.2-0.7
		c-1-1.1-1-2.6-0.1-3.8c0.3-0.3,0.2-0.5,0.1-0.8c-1.3-3.1-2.6-6.3-3.8-9.4c-0.1-0.3-0.1-0.8,0-1.1c3.5-6.9,7.1-13.8,10.6-20.7
		c0.2-0.4,0.5-0.7,1.1-0.7c0.5,0,0.8,0.3,1.1,0.8c3.6,6.8,7.1,13.7,10.7,20.5c0.2,0.5,0.2,0.9,0,1.4c-1.3,3.1-2.6,6.2-3.8,9.3
		c-0.1,0.3-0.2,0.5,0.1,0.8c0.9,1,0.9,2.6,0,3.7c-0.2,0.3-0.3,0.6-0.3,1c0,1.6,0,3.3,0,4.9c0,1.7-1.2,2.9-2.9,2.9
		C62.5,126.7,60.9,126.7,59.3,126.7z M65.2,113.2c1.3-3.1,2.6-6.2,3.9-9.4c0.1-0.2,0-0.5-0.1-0.7c-2.8-5.4-5.6-10.7-8.4-16.1
		c-0.1-0.1-0.2-0.3-0.3-0.5c0,3.8,0,7.4,0,11.1c0,0.4,0.2,0.4,0.5,0.5c1.6,0.7,2.5,2,2.4,3.7c0,1.8-1.1,3.2-2.7,3.7
		c-1.7,0.5-3.6-0.3-4.5-1.8c-0.9-1.4-0.7-3.4,0.6-4.6c0.5-0.5,1.2-0.8,1.8-1.3c0-3.6,0-7.4,0-11.2c-0.1,0.1-0.2,0.2-0.2,0.3
		c-2.8,5.4-5.7,10.9-8.5,16.3c-0.1,0.2-0.1,0.5,0,0.7c1.2,2.9,2.5,5.9,3.7,8.8c0.2,0.4,0.3,0.5,0.7,0.5c3.1,0,6.2,0,9.3,0
		C63.9,113.2,64.6,113.2,65.2,113.2z M53.6,119c0,1.6,0,3.2,0,4.8c0,0.6,0.4,0.9,1,1c0.7,0,1.3,0,2,0c2.4,0,4.9,0,7.3,0
		c0.8,0,1.2-0.3,1.2-0.9c0-1.6,0-3.2,0-4.9C61.3,119,57.5,119,53.6,119z M59.3,117c0.5,0,1.1,0,1.6,0c1.4,0,2.7,0,4.1,0
		c0.9,0,1.4-0.8,0.9-1.5c-0.2-0.3-0.7-0.4-1-0.4c-2.2,0-4.4,0-6.5,0c-1.5,0-3.1,0-4.6,0c-0.8,0-1.2,0.5-1.1,1.2
		c0.2,0.6,0.6,0.7,1.1,0.7C55.6,117,57.5,117,59.3,117z M61.3,101.7c0-1-0.9-1.9-1.9-1.9c-1,0-1.9,0.9-1.9,1.9c0,1,0.9,1.9,1.9,1.9
		C60.4,103.6,61.3,102.7,61.3,101.7z"/>
</g>
</svg>
